<?xml version="1.0" encoding="UTF-8"?>
<svg width="512px" height="512px" viewBox="0 0 512 512" version="1.1" xmlns="http://www.w3.org/2000/svg" xmlns:xlink="http://www.w3.org/1999/xlink">
    <title>baker-line-icon</title>
    <g id="baker-line-icon" stroke="none" stroke-width="1" fill="none" fill-rule="evenodd" stroke-linecap="round" stroke-linejoin="round">
        <path d="M27.2871943,126.275722 L171.255036,35.7054137 C186.068923,26.3859828 204.253,24.1161426 220.90324,29.5080415 L464.966167,108.5437 C488.833018,116.272577 505,138.501532 505,163.588622 L505,334.976683 C505,348.583533 498.044923,361.246326 486.561902,368.546093 L347.569956,456.903393 C325.530523,470.913879 298.430848,474.482344 273.515799,466.65479 L41.608527,393.796544 C21.0126095,387.32593 7,368.235713 7,346.647275 L7,163.006239 C7,148.0897 14.6613202,134.218671 27.2871943,126.275722 Z" id="Path" stroke="#979797" stroke-width="13.054"></path>
        <line x1="226" y1="189" x2="282" y2="154" id="Path" stroke="#979797" stroke-width="12.054"></line>
        <line x1="223.5" y1="191" x2="223.5" y2="421" id="Path" stroke="#979797" stroke-width="13.054"></line>
        <line x1="439.07414" y1="239.475615" x2="439.07414" y2="329.245886" id="Path" stroke="#979797" stroke-width="13.054"></line>
        <line x1="470.07414" y1="218.475615" x2="470.07414" y2="308.245886" id="Path" stroke="#979797" stroke-width="13.054"></line>
        <path d="M7,193.193414 L7,169.305538 C7,148.926231 23.5206927,132.405538 43.9,132.405538 C47.8911801,132.405538 51.8559259,133.053051 55.6397261,134.322844 L55.865161,134.398497 L55.865161,134.398497 L301.583441,214.128719 C323.892576,221.367547 339,242.152402 339,265.606573 L339,421.861027 C339,448.354127 317.523099,469.831027 291.03,469.831027 C286.203354,469.831027 281.404348,469.10258 276.795111,467.670293 L268.498602,465.092215 L268.498602,465.092215" id="Path-Copy" stroke="#979797" stroke-width="13.054"></path>
        <path d="M48,331.220408 L48,210.207309 C48,201.376276 55.1589669,194.217309 63.99,194.217309 C65.713767,194.217309 67.4261934,194.496038 69.0609805,195.042704 L85.3585258,200.492535 L85.3585258,200.492535 L160.440765,224.853298 C172.102653,228.637049 180,239.502005 180,251.762364 L180,371.300307 C180,380.13134 172.841033,387.290307 164.01,387.290307 C162.404254,387.290307 160.807668,387.048436 159.273972,386.572835 L67.910873,358.241036 C56.0706354,354.569365 48,343.616875 48,331.220408 Z" id="Path-Copy" stroke="#979797" stroke-width="13.054"></path>
        <path d="M63.4616699,103.515747 L65.8198895,102.090966 C79.5794383,93.7777676 96.2735027,91.8574815 111.561216,96.8294293 L358.618215,177.17856 C380.909641,184.428291 396,205.204421 396,228.645118 L396,402.516665 C396,416.166425 389.33858,428.957214 378.154504,436.782327 L367.601685,444.165771 L367.601685,444.165771" id="Path-Copy-2" stroke="#979797" stroke-width="13.054"></path>
        <path d="M281.5,287.342144 C296.135546,292.470145 308,310.800917 308,328.285068 C308,345.769219 296.135546,355.785858 281.5,350.657856 C266.864454,345.529855 255,327.199083 255,309.714932 C255,292.230781 266.864454,282.214142 281.5,287.342144 Z" id="Rectangle" stroke="#979797" stroke-width="13.054"></path>
        <path d="M282.5,383.377437 C292.164983,385.58104 300,396.824307 300,408.489976 C300,420.155645 292.164983,427.826166 282.5,425.622563 C272.835017,423.41896 265,412.175693 265,400.510024 C265,388.844355 272.835017,381.173834 282.5,383.377437 Z" id="Rectangle-Copy" stroke="#979797" stroke-width="13.054"></path>
        <path d="M135,277 L121.653726,285.007765 M104.08276,296.263197 L70,316" id="Shape" stroke="#979797" stroke-width="12.054"></path>
        <line x1="154.382353" y1="292.619048" x2="113.617647" y2="317.380952" id="Line-2-Copy" stroke="#979797" stroke-width="13.054"></line>
    </g>
</svg>