<?xml version="1.0" encoding="UTF-8"?>
<svg width="512px" height="512px" viewBox="0 0 512 512" version="1.1" xmlns="http://www.w3.org/2000/svg" xmlns:xlink="http://www.w3.org/1999/xlink">
    <title>baker-menu-bar-icon</title>
    <g id="baker-menu-bar-icon" stroke="none" stroke-width="1" fill="none" fill-rule="evenodd">
        <path d="M384.95733,87.000985 C422.720583,87.066027 436.879426,90.3557257 450.938709,97.8747123 C463.521237,104.603922 473.396078,114.478763 480.125288,127.061291 C487.720224,141.262587 491,155.565465 491,194.19426 L491,194.19426 L491,330.80574 C491,369.434535 487.720224,383.737413 480.125288,397.938709 C473.396078,410.521237 463.521237,420.396078 450.938709,427.125288 C436.737413,434.720224 422.434535,438 383.80574,438 L383.80574,438 L128.19426,438 C89.5654647,438 75.2625865,434.720224 61.0612909,427.125288 C48.4787632,420.396078 38.6039218,410.521237 31.8747123,397.938709 C24.2797763,383.737413 21,369.434535 21,330.80574 L21,330.80574 L21,194.19426 C21,155.565465 24.2797763,141.262587 31.8747123,127.061291 C38.6039218,114.478763 48.4787632,104.603922 61.0612909,97.8747123 C75.2625865,90.2797763 89.5654647,87 128.19426,87 Z" id="Rectangle" stroke="#000000" stroke-width="42"></path>
        <path d="M121.586048,148 L260.413952,148 C275.56977,148 281.065636,149.578035 286.606377,152.541256 C292.147118,155.504477 296.495523,159.852882 299.458744,165.393623 C302.421965,170.934364 304,176.43023 304,191.586048 L304,333.413952 C304,348.56977 302.421965,354.065636 299.458744,359.606377 C296.495523,365.147118 292.147118,369.495523 286.606377,372.458744 C281.065636,375.421965 275.56977,377 260.413952,377 L121.586048,377 C106.43023,377 100.934364,375.421965 95.393623,372.458744 C89.8528823,369.495523 85.5044765,365.147118 82.541256,359.606377 C79.5780354,354.065636 78,348.56977 78,333.413952 L78,191.586048 C78,176.43023 79.5780354,170.934364 82.541256,165.393623 C85.5044765,159.852882 89.8528823,155.504477 95.393623,152.541256 C100.934364,149.578035 106.43023,148 121.586048,148 Z" id="Rectangle" fill="#000000"></path>
        <path d="M360.5,148 L403.5,148 C413.164983,148 421,155.835017 421,165.5 C421,175.164983 413.164983,183 403.5,183 L360.5,183 C350.835017,183 343,175.164983 343,165.5 C343,155.835017 350.835017,148 360.5,148 Z" id="Rectangle-Copy-3" fill-opacity="0.2" fill="#000000"></path>
        <path d="M383,297 C405.09139,297 423,314.90861 423,337 C423,359.09139 405.09139,377 383,377 C360.90861,377 343,359.09139 343,337 C343,314.90861 360.90861,297 383,297 Z" id="Rectangle-Copy" fill="#000000"></path>
        <path d="M383,205 C405.09139,205 423,222.90861 423,245 C423,267.09139 405.09139,285 383,285 C360.90861,285 343,267.09139 343,245 C343,222.90861 360.90861,205 383,205 Z" id="Rectangle-Copy-2" fill="#000000"></path>
    </g>
</svg>